{"title":"Jodi Breakers - 2012 - DVDScr - 720p - X264 - AC3 - DrC","uid":7061602,"size":2208631799,"categoryP":"video","categoryS":"hd___movies","magnet":"?xt=urn:btih:2eb67c3bdb6fd56f8e17401c27c280a9d49517b5&amp;dn=Jodi+Breakers+-+2012+-+DVDScr+-+720p+-+X264+-+AC3+-+DrC&amp;tr=udp%3A%2F%2Ftracker.openbittorrent.com%3A80&amp;tr=udp%3A%2F%2Fopen.demonii.com%3A1337&amp;tr=udp%3A%2F%2Ftracker.coppersurfer.tk%3A6969&amp;tr=udp%3A%2F%2Fexodus.desync.com%3A6969","seeders":0,"leechers":0,"uploader":"arsenal_rocks","files":1,"time":1330366272,"description":"\n &lt;a href=&quot;\nhttp://img24.imageshack.us/img24/8931/jodibreakers.jpg&quot; rel=&quot;nofollow&quot; target=&quot;_NEW&quot;&gt;\nhttp://img24.imageshack.us/img24/8931/jodibreakers.jpg&lt;/a&gt;\n\nRip Specs \n\nGeneral\n\nFormat                                   : Matroska\nFormat version                           : Version 2\nFile size                                : 2.06 GiB\nDuration                                 : 2h 13mn\nOverall bit rate mode                    : Variable\nOverall bit rate                         : 2 214 Kbps\n\nVideo\n\nFormat                                   : AVC\nFormat/Info                              : Advanced Video Codec\nFormat profile                           : &lt;a class=&quot;__cf_email__&quot; href=&quot;/cdn-cgi/l/email-protection&quot; data-cfemail=&quot;1058797778505c243e21&quot;&gt;[email&amp;#160;protected]&lt;/a&gt;&lt;script cf-hash='f9e31' type=&quot;text/javascript&quot;&gt;\n/* &lt;![CDATA[ */!function(){try{var t=&quot;currentScript&quot;in document?document.currentScript:function(){for(var t=document.getElementsByTagName(&quot;script&quot;),e=t.length;e--;)if(t[e].getAttribute(&quot;cf-hash&quot;))return t[e]}();if(t&amp;&amp;t.previousSibling){var e,r,n,i,c=t.previousSibling,a=c.getAttribute(&quot;data-cfemail&quot;);if(a){for(e=&quot;&quot;,r=parseInt(a.substr(0,2),16),n=2;a.length-n;n+=2)i=parseInt(a.substr(n,2),16)^r,e+=String.fromCharCode(i);e=document.createTextNode(e),c.parentNode.replaceChild(e,c)}}}catch(u){}}();/* ]]&gt; */&lt;/script&gt;\nFormat settings, CABAC                   : Yes\nFormat settings, ReFrames                : 3 frames\nCodec ID                                 : V_MPEG4/ISO/AVC\nDuration                                 : 2h 13mn\nBit rate mode                            : Variable\nBit rate                                 : 2 020 Kbps\nMaximum bit rate                         : 40.0 Mbps\nWidth                                    : 1 280 pixels\nHeight                                   : 544 pixels\nDisplay aspect ratio                     : 2.35:1\nFrame rate                               : 23.976 fps\nColor space                              : YUV\nChroma subsampling                       : 4:2:0\nBit depth                                : 8 bits\nScan type                                : Progressive\nBits/(Pixel*Frame)                       : 0.121\nStream size                              : 1.84 GiB (89%)\n\nAudio\n\nFormat                                   : AC-3\nFormat/Info                              : Audio Coding 3\nMode extension                           : CM (complete main)\nCodec ID                                 : A_AC3\nDuration                                 : 2h 13mn\nBit rate mode                            : Constant\nBit rate                                 : 192 Kbps\nChannel(s)                               : 2 channels\nChannel positions                        : Front: L R\nSampling rate                            : 48.0 KHz\nBit depth                                : 16 bits\nCompression mode                         : Lossy\nStream size                              : 183 MiB (9%)\n\n\n &lt;a href=&quot;\nhttp://img827.imageshack.us/img827/6456/49387222.png&quot; rel=&quot;nofollow&quot; target=&quot;_NEW&quot;&gt;\nhttp://img827.imageshack.us/img827/6456/49387222.png&lt;/a&gt;\n &lt;a href=&quot;\nhttp://i.imgur.com/KMHyj.png&quot; rel=&quot;nofollow&quot; target=&quot;_NEW&quot;&gt;\nhttp://i.imgur.com/KMHyj.png&lt;/a&gt;\n &lt;a href=&quot;\nhttp://i.imgur.com/7Wtnn.png&quot; rel=&quot;nofollow&quot; target=&quot;_NEW&quot;&gt;\nhttp://i.imgur.com/7Wtnn.png&lt;/a&gt;\n &lt;a href=&quot;\nhttp://i.imgur.com/bNppo.png&quot; rel=&quot;nofollow&quot; target=&quot;_NEW&quot;&gt;\nhttp://i.imgur.com/bNppo.png&lt;/a&gt;\n &lt;a href=&quot;\nhttp://i.imgur.com/1onOW.png&quot; rel=&quot;nofollow&quot; target=&quot;_NEW&quot;&gt;\nhttp://i.imgur.com/1onOW.png&lt;/a&gt;\n &lt;a href=&quot;\nhttp://i.imgur.com/O3BsH.png&quot; rel=&quot;nofollow&quot; target=&quot;_NEW&quot;&gt;\nhttp://i.imgur.com/O3BsH.png&lt;/a&gt;\n &lt;a href=&quot;\nhttp://i.imgur.com/VFreF.png&quot; rel=&quot;nofollow&quot; target=&quot;_NEW&quot;&gt;\nhttp://i.imgur.com/VFreF.png&lt;/a&gt;\n\n\nSeeding at 100 Mbps.\nEnjoy the HQ Rip by D!D @ DrC\nDon\\'t forget to leave your reply.\nDrC - Always with you !","torrent":{"xt":"urn:btih:2eb67c3bdb6fd56f8e17401c27c280a9d49517b5","amp;dn":"Jodi+Breakers+-+2012+-+DVDScr+-+720p+-+X264+-+AC3+-+DrC","amp;tr":["udp%3A%2F%2Ftracker.openbittorrent.com%3A80","udp%3A%2F%2Fopen.demonii.com%3A1337","udp%3A%2F%2Ftracker.coppersurfer.tk%3A6969","udp%3A%2F%2Fexodus.desync.com%3A6969"],"infoHash":"2eb67c3bdb6fd56f8e17401c27c280a9d49517b5","infoHashBuffer":{"type":"Buffer","data":[46,182,124,59,219,111,213,111,142,23,64,28,39,194,128,169,212,149,23,181]},"announce":[],"urlList":[]}}